<?xml version="1.0" standalone="no"?>
<!DOCTYPE svg PUBLIC "-//W3C//DTD SVG 20010904//EN"
 "http://www.w3.org/TR/2001/REC-SVG-20010904/DTD/svg10.dtd">
<svg version="1.0" xmlns="http://www.w3.org/2000/svg"
 width="1024.000000pt" height="513.000000pt" viewBox="0 0 1024.000000 513.000000"
 preserveAspectRatio="xMidYMid meet">
<metadata>
Created by potrace 1.16, written by Peter Selinger 2001-2019
</metadata>
<g transform="translate(0.000000,513.000000) scale(0.100000,-0.100000)"
fill="#000000" stroke="none">
<path d="M1065 3315 c-93 -46 -163 -84 -155 -84 16 -1 164 -84 498 -277 148
-86 223 -124 245 -124 21 0 91 35 226 114 108 62 227 130 265 151 37 20 101
56 141 80 40 23 85 47 100 52 25 8 12 15 -149 91 -97 45 -184 82 -194 82 -10
0 -94 -45 -187 -100 -117 -68 -180 -100 -201 -100 -23 0 -81 29 -200 100 -99
58 -179 99 -194 99 -14 0 -101 -38 -195 -84z"/>
<path d="M6580 3225 c-73 -20 -128 -60 -165 -120 -27 -44 -30 -56 -30 -134 0
-72 4 -92 23 -123 30 -48 101 -94 182 -118 36 -10 97 -28 137 -39 88 -26 133
-61 133 -103 0 -68 -50 -102 -150 -101 -77 1 -149 26 -219 77 l-49 36 -52 -62
-52 -62 32 -28 c96 -80 229 -122 365 -116 113 6 180 33 235 95 50 58 63 98 58
188 -6 134 -67 186 -288 250 -69 20 -136 44 -150 54 -55 40 -48 116 15 145 69
33 196 9 283 -53 l31 -21 45 64 c25 35 46 66 46 69 0 11 -107 70 -160 89 -75
26 -200 32 -270 13z"/>
<path d="M7491 3224 c-202 -54 -332 -225 -334 -439 -1 -142 39 -241 137 -333
92 -88 184 -123 319 -123 185 0 336 90 415 248 133 265 -4 573 -291 649 -66
18 -177 17 -246 -2z m212 -158 c194 -70 258 -323 123 -484 -47 -54 -108 -84
-187 -90 -122 -9 -216 44 -269 152 -85 171 -4 374 170 427 40 12 122 9 163 -5z"/>
<path d="M3000 2785 l0 -445 85 0 85 0 2 291 3 292 98 -147 97 -146 60 0 60 0
97 146 98 147 3 -292 2 -291 90 0 90 0 0 445 0 445 -90 0 -89 0 -58 -90 c-32
-50 -90 -140 -130 -201 l-71 -112 -69 107 c-37 59 -95 148 -128 199 l-60 92
-88 3 -87 3 0 -446z"/>
<path d="M4185 2793 c-104 -240 -191 -440 -193 -444 -2 -5 37 -9 86 -9 l89 0
45 103 44 102 198 0 198 0 42 -100 43 -100 92 -3 c58 -2 92 1 89 7 -1 6 -88
206 -193 445 l-190 436 -80 0 -80 0 -190 -437z m340 53 c30 -70 55 -129 55
-131 0 -3 -56 -5 -125 -5 -69 0 -125 4 -125 8 0 8 106 257 117 275 7 12 12 4
78 -147z"/>
<path d="M5048 3224 c-5 -4 -8 -205 -8 -447 l0 -439 228 4 c209 4 232 6 287
28 82 32 122 58 178 119 118 126 147 323 72 488 -45 100 -148 186 -268 226
-52 17 -96 21 -272 25 -115 2 -213 1 -217 -4z m444 -179 c99 -35 169 -136 171
-249 3 -95 -18 -153 -78 -213 -67 -66 -120 -83 -262 -83 l-103 0 0 286 0 287
113 -6 c65 -3 132 -12 159 -22z"/>
<path d="M6020 2785 l0 -445 85 0 85 0 0 445 0 445 -85 0 -85 0 0 -445z"/>
<path d="M8240 2785 l0 -445 85 0 85 0 2 295 3 296 229 -296 228 -295 74 0 74
0 -2 443 -3 442 -82 3 -83 3 0 -286 c0 -157 -3 -285 -7 -285 -5 1 -107 129
-227 285 l-220 285 -78 0 -78 0 0 -445z"/>
</g>
</svg>
